#!OML:ASF F:\VICON\USERDATA\INSTALL\Justin_Nancy\Justin_Nancy.ASF
:FULLY-SPECIFIED
:DEGREES
142
root 8.61761 16.5033 0.872798 -84.7843 -83.2335 98.4614
lowerback 8.20409 1.70324 -0.601932
upperback -0.507399 2.15515 -0.899947
thorax -5.11808 1.06458 -0.866064
lowerneck -19.2039 -3.60381 -10.4012
upperneck 18.3897 -3.23318 5.56888
head 9.2214 -1.65455 3.19354
rclavicle 7.95139e-015 7.15625e-015
rhumerus -21.102 15.7484 -96.3582
rradius 62.5459
rwrist 5.7561
rhand -12.3229 15.1609
rfingers 7.12502
rthumb 13.7458 -14.3651
lclavicle 7.95139e-015 7.15625e-015
lhumerus -41.6441 25.9512 68.0419
lradius 17.5923
lwrist -18.3472
lhand -17.3871 24.49
lfingers 7.12502
lthumb 8.86183 54.284
rfemur -6.52073 7.14303 31.0581
rtibia 30.9914
rfoot -28.9416 -7.71109
rtoes 10.6248
lfemur -38.0149 9.53917 -13.9439
ltibia 35.232
lfoot -5.41052 6.26031
ltoes -19.5466
143
root 8.48328 16.4427 1.00476 -93.0261 -83.0203 106.974
lowerback 8.29228 1.78011 -0.954707
upperback -0.482878 2.22828 -0.76535
thorax -5.16073 1.11171 -0.540268
lowerneck -19.9858 -3.7513 -10.2154
upperneck 18.6087 -3.40978 5.57845
head 9.44975 -1.71325 3.14093
rclavicle -1.64991e-014 3.97569e-015
rhumerus -21.2064 16.2006 -95.9867
rradius 63.1902
rwrist 5.53989
rhand -13.2719 14.9574
rfingers 7.12502
rthumb 12.831 -14.6282
lclavicle -1.64991e-014 3.97569e-015
lhumerus -40.7969 25.541 68.4885
lradius 17.9862
lwrist -17.1584
lhand -17.422 25.1953
lfingers 7.12502
lthumb 8.82813 54.9906
rfemur -6.03522 4.14144 30.6409
rtibia 30.0298
rfoot -26.5449 -12.7963
rtoes -13.8789
lfemur -38.4579 10.0311 -14.6026
ltibia 31.8065
lfoot -4.79054 5.62776
ltoes -18.3983
144
root 8.33628 16.4971 1.07823 -96.1021 -82.739 110.659
lowerback 8.02574 1.69141 -1.26141
upperback -0.579805 2.08735 -0.719627
thorax -5.12456 1.05206 -0.296509
lowerneck -20.1359 -3.89998 -10.2879
upperneck 18.3771 -3.57543 5.62328
head 9.41258 -1.78277 3.14118
rclavicle 3.37934e-015 3.33958e-014
rhumerus -21.3096 16.4759 -95.8345
rradius 63.6335
rwrist 4.74903
rhand -14.0997 14.7573
rfingers 7.12502
rthumb 12.0329 -14.8767
lclavicle 3.37934e-015 3.33958e-014
lhumerus -39.9189 24.863 68.8194
lradius 18.4594
lwrist -15.8725
lhand -17.956 25.1471
lfingers 7.12502
lthumb 8.3128 54.9636
rfemur -5.38479 6.84368 29.9715
rtibia 29.1226
rfoot -28.8222 -7.70166
rtoes 12.7913
lfemur -38.9882 10.3799 -15.5058
ltibia 28.0852
lfoot -4.56187 5.29602
ltoes -16.9966
145
root 8.19829 16.5046 1.22121 -103.812 -83.7557 118.467
lowerback 8.36363 1.59636 0.618602
upperback -0.562542 2.1606 -0.427438
thorax -5.2386 1.0405 -1.06686
lowerneck -19.8865 -3.964 -10.5935
upperneck 17.8365 -3.62157 5.81747
head 9.19411 -1.79744 3.24777
rclavicle -6.36111e-015 -5.56597e-015
rhumerus -21.4207 16.5849 -95.5799
rradius 64.0152
rwrist 3.87326
rhand -14.3833 14.6302
rfingers 7.12502
rthumb 11.7595 -15.0197
lclavicle -6.36111e-015 -5.56597e-015
lhumerus -39.3295 24.6817 68.9693
lradius 18.9518
lwrist -15.943
lhand -17.8839 24.649
lfingers 7.12502
lthumb 8.38235 54.4627
rfemur -4.4039 7.89044 30.8585
rtibia 28.2379
rfoot -29.1083 -6.65882
rtoes 20.2728
lfemur -39.1513 11.0808 -14.9911
ltibia 24.6452
lfoot -5.1641 5.15649
ltoes -15.7227
146
root 8.05002 16.4817 1.34778 -109.77 -83.3252 124.472
lowerback 8.55203 1.62863 0.700107
upperback -0.478549 2.21384 -0.377364
thorax -5.25484 1.06463 -1.07179
lowerneck -19.7787 -3.86876 -10.8274
upperneck 17.5591 -3.4312 5.86095
head 9.06744 -1.71622 3.32516
rclavicle -7.95139e-015 -1.43125e-014
rhumerus -21.5011 16.4581 -95.0784
rradius 64.2055
rwrist 3.43504
rhand -13.7768 14.9157
rfingers 7.12502
rthumb 12.3443 -14.6999
lclavicle -7.95139e-015 -1.43125e-014
lhumerus -38.7776 24.185 69.4449
lradius 19.6219
lwrist -15.5641
lhand -17.71 24.5107
lfingers 7.12502
lthumb 8.55022 54.3176
rfemur -3.61482 7.28932 30.3532
rtibia 27.4592
rfoot -27.9917 -8.75975
rtoes 11.2409
lfemur -39.1537 12.2248 -16.2773
ltibia 21.2665
lfoot -7.07274 5.63505
ltoes -15.9519
147
root 7.89613 16.5016 1.41627 -115.452 -83.2297 130.26
lowerback 8.58537 1.7244 0.619946
upperback -0.408716 2.34343 -0.161982
thorax -5.21007 1.13378 -0.819128
lowerneck -19.9017 -3.83779 -10.8493
upperneck 17.5973 -3.37222 5.87931
head 9.09772 -1.68689 3.34343
rclavicle -1.19271e-014 -3.97569e-015
rhumerus -21.5676 15.9381 -94.6067
rradius 64.1723
rwrist 3.35681
rhand -13.3197 15.2808
rfingers 7.12502
rthumb 12.785 -14.3077
lclavicle -1.19271e-014 -3.97569e-015
lhumerus -37.909 22.5762 70.309
lradius 20.3431
lwrist -13.5419
lhand -17.8197 24.2901
lfingers 7.12502
lthumb 8.44431 54.1013
rfemur -2.45996 9.00915 30.3237
rtibia 26.611
rfoot -28.0918 -7.12588
rtoes 19.4578
lfemur -39.3689 14.268 -17.6324
ltibia 18.2325
lfoot -9.94402 6.44223
ltoes -17.4257
148
root 7.73407 16.4754 1.51219 -124.148 -84.6468 139.072
lowerback 8.49723 1.51985 2.36958
upperback -0.326067 2.2693 0.383107
thorax -5.03045 1.05823 -1.21913
lowerneck -19.6679 -3.86047 -10.8142
upperneck 17.1742 -3.43443 5.92076
head 8.91605 -1.70417 3.33922
rclavicle 1.51076e-014 3.18055e-015
rhumerus -21.7166 15.5896 -94.2289
rradius 64.049
rwrist 3.24285
rhand -13.7015 15.1343
rfingers 7.12502
rthumb 12.4169 -14.4769
lclavicle 1.51076e-014 3.18055e-015
lhumerus -37.0369 21.4228 70.7956
lradius 21.0003
lwrist -11.6183
lhand -15.7732 23.9704
lfingers 7.12502
lthumb 10.419 53.6922
rfemur -1.53421 9.53189 31.9055
rtibia 25.8615
rfoot -27.3279 -7.34058
rtoes 19.7967
lfemur -39.6675 15.6762 -17.5535
ltibia 15.2036
lfoot -12.9563 6.67841
ltoes -17.8144
149
root 7.55561 16.5036 1.62362 -122.368 -82.5739 136.532
lowerback 9.02205 1.64349 0.88197
upperback 0.0107345 2.25644 -0.160127
thorax -5.00845 1.08371 -0.958657
lowerneck -19.6288 -3.67112 -10.2176
upperneck 17.1128 -3.25839 5.48701
head 8.85319 -1.62839 3.1143
rclavicle -1.59028e-014 2.38542e-014
rhumerus -21.951 15.405 -93.9492
rradius 63.7513
rwrist 2.97277
rhand -14.2599 14.9408
rfingers 7.12502
rthumb 11.8785 -14.7023
lclavicle -1.59028e-014 2.38542e-014
lhumerus -36.5136 21.4377 70.5546
lradius 21.5762
lwrist -11.048
lhand -14.3636 24.4507
lfingers 7.12502
lthumb 11.7785 54.0995
rfemur 0.204535 9.69306 29.3831
rtibia 25.4472
rfoot -26.9821 -6.18954
rtoes 20.1848
lfemur -37.791 16.3695 -20.4011
ltibia 11.7931
lfoot -14.8732 6.98023
ltoes -16.0101
150
root 7.38909 16.5087 1.73195 -124.316 -82.8102 138.389
lowerback 9.11482 1.4689 1.2283
upperback 0.0401356 2.07249 0.0841246
thorax -5.03059 0.986493 -0.877366
lowerneck -19.8948 -3.38877 -9.64237
upperneck 17.602 -2.90653 4.92517
head 9.02028 -1.49249 2.87727
rclavicle 2.54444e-014 1.11319e-014
rhumerus -22.2521 14.9446 -93.4185
rradius 63.2325
rwrist 2.60001
rhand -14.7593 15.1731
rfingers 7.12502
rthumb 11.3969 -14.4972
lclavicle 2.54444e-014 1.11319e-014
lhumerus -36.0247 21.3053 70.6238
lradius 22.0388
lwrist -10.4231
lhand -18.0733 25.2243
lfingers 7.12502
lthumb 8.19956 55.0452
rfemur 1.00924 9.43447 29.1635
rtibia 25.1269
rfoot -26.5469 -4.83513
rtoes 20.9093
lfemur -36.5269 15.1884 -20.5317
ltibia 8.73542
lfoot -15.5279 6.4875
ltoes -13.2636
151
root 7.22378 16.5093 1.81084 -125.835 -82.7076 139.789
lowerback 9.14728 1.40576 0.698341
upperback 0.0738484 1.9518 0.491727
thorax -5.04841 0.944002 -0.140553
lowerneck -19.8595 -3.12843 -9.76816
upperneck 17.8357 -2.48155 4.73435
head 9.06102 -1.33018 2.89242
rclavicle -1.51076e-014 -2.78299e-014
rhumerus -22.6394 14.5265 -92.6589
rradius 62.6127
rwrist 2.24305
rhand -15.2775 15.1448
rfingers 7.12502
rthumb 10.8971 -14.5524
lclavicle -1.51076e-014 -2.78299e-014
lhumerus -35.6346 21.3754 70.9038
lradius 22.4607
lwrist -9.5966
lhand -21.0634 25.5605
lfingers 7.12502
lthumb 5.3131 55.4739
rfemur 1.72133 9.54172 28.8645
rtibia 25.205
rfoot -26.3277 -3.97148
rtoes 21.2732
lfemur -34.4658 14.3834 -20.7414
ltibia 5.00602
lfoot -16.0922 5.13218
ltoes -11.9803
152
root 7.04289 16.5025 1.8909 -125.653 -82.1761 139.329
lowerback 9.18689 1.44724 -0.0405256
upperback 0.150094 1.93104 0.55913
thorax -5.01804 0.95233 0.347258
lowerneck -19.6863 -3.03742 -10.0774
upperneck 17.9637 -2.32606 4.90076
head 9.06854 -1.26661 3.02437
rclavicle -1.82882e-014 -1.90833e-014
rhumerus -23.0338 13.6751 -91.9841
rradius 61.7691
rwrist 2.36325
rhand -15.2893 15.0643
rfingers 7.12502
rthumb 10.8857 -14.6335
lclavicle -1.82882e-014 -1.90833e-014
lhumerus -35.1697 21.2995 70.9884
lradius 22.9
lwrist -8.7816
lhand -20.6713 25.5474
lfingers 7.12502
lthumb 5.69168 55.451
rfemur 2.57132 9.60691 28.037
rtibia 25.3174
rfoot -25.8569 -3.69413
rtoes 18.7637
lfemur -33.8754 13.6222 -21.3887
ltibia 4.68639
lfoot -16.0878 4.54355
ltoes -11.7379
153
root 6.86125 16.4798 1.97597 -126.537 -81.6043 139.835
lowerback 9.31825 1.6198 -0.690361
upperback 0.24544 2.08593 0.491123
thorax -5.01439 1.04264 0.618505
lowerneck -19.6626 -3.07071 -9.86847
upperneck 18.3454 -2.46137 4.94587
head 9.20465 -1.31957 2.99232
rclavicle 1.98785e-015 2.38542e-015
rhumerus -23.3075 12.3071 -91.4069
rradius 60.6194
rwrist 2.64308
rhand -15.4256 14.9432
rfingers 7.12502
rthumb 10.7542 -14.7615
lclavicle 1.98785e-015 2.38542e-015
lhumerus -34.5342 20.907 70.9648
lradius 23.3756
lwrist -8.10818
lhand -20.5217 26.0515
lfingers 7.12502
lthumb 5.83615 55.9511
rfemur 3.37131 8.88971 27.1147
rtibia 25.5646
rfoot -25.0921 -3.34809
rtoes 13.038
lfemur -34.5821 12.9902 -21.9208
ltibia 7.31566
lfoot -15.8922 4.98192
ltoes -12.6988
154
root 6.67614 16.4454 2.05684 -129.685 -81.4346 142.609
lowerback 9.38 1.6701 -1.09624
upperback 0.363608 2.11949 0.761233
thorax -4.95167 1.06978 1.12323
lowerneck -19.5742 -3.06066 -9.45251
upperneck 18.5221 -2.51979 4.6352
head 9.24486 -1.35762 2.80935
rclavicle 1.27222e-014 1.59028e-014
rhumerus -23.53 11.172 -90.6736
rradius 59.3364
rwrist 2.99761
rhand -15.4562 14.9958
rfingers 7.12502
rthumb 10.7247 -14.7105
lclavicle 1.27222e-014 1.59028e-014
lhumerus -34.0723 20.394 71.2549
lradius 23.994
lwrist -6.86272
lhand -21.7928 26.7092
lfingers 7.12502
lthumb 4.60884 56.6391
rfemur 4.17918 8.31828 26.9175
rtibia 25.8734
rfoot -24.3098 -3.47865
rtoes 6.87441
lfemur -35.6607 12.4585 -21.7772
ltibia 11.1309
lfoot -15.6056 6.07805
ltoes -14.9736
